<?xml version="1.0" encoding="UTF-8" standalone="no"?>
<svg
   xmlns:lucid="lucid"
   xmlns:dc="http://purl.org/dc/elements/1.1/"
   xmlns:cc="http://creativecommons.org/ns#"
   xmlns:rdf="http://www.w3.org/1999/02/22-rdf-syntax-ns#"
   xmlns:svg="http://www.w3.org/2000/svg"
   xmlns="http://www.w3.org/2000/svg"
   xmlns:xlink="http://www.w3.org/1999/xlink"
   xmlns:sodipodi="http://sodipodi.sourceforge.net/DTD/sodipodi-0.dtd"
   xmlns:inkscape="http://www.inkscape.org/namespaces/inkscape"
   width="459.19"
   height="283.25"
   id="svg2"
   version="1.1"
   inkscape:version="0.91 r13725"
   sodipodi:docname="a.svg">
  <metadata
     id="metadata225">
    <rdf:RDF>
      <cc:Work
         rdf:about="">
        <dc:format>image/svg+xml</dc:format>
        <dc:type
           rdf:resource="http://purl.org/dc/dcmitype/StillImage" />
        <dc:title></dc:title>
      </cc:Work>
    </rdf:RDF>
  </metadata>
  <defs
     id="defs223" />
  <sodipodi:namedview
     pagecolor="#ffffff"
     bordercolor="#666666"
     borderopacity="1"
     objecttolerance="10"
     gridtolerance="10"
     guidetolerance="10"
     inkscape:pageopacity="0"
     inkscape:pageshadow="2"
     inkscape:window-width="640"
     inkscape:window-height="480"
     id="namedview221"
     showgrid="false"
     fit-margin-top="0"
     fit-margin-left="0"
     fit-margin-right="0"
     fit-margin-bottom="0"
     inkscape:zoom="0.98163059"
     inkscape:cx="185.1048"
     inkscape:cy="105.35275"
     inkscape:window-x="205"
     inkscape:window-y="120"
     inkscape:window-maximized="0"
     inkscape:current-layer="svg2" />
  <g
     transform="translate(1641,-40)"
     lucid:page-tab-id="mvBCMjHFaehG"
     id="g4">
    <path
       d="m -1640,280 380,0 m -380,0 0,-240 m 0,160 342.7,-114.23"
       id="path6"
       inkscape:connector-curvature="0"
       style="fill:none;stroke:#000000;stroke-width:2" />
    <path
       d="m -1283.07,81.02 -12.07,8.9 -2.93,-8.78 z"
       id="path8"
       inkscape:connector-curvature="0"
       style="stroke:#000000;stroke-width:2" />
    <path
       d="m -1640,240 361.86,-38.1"
       id="path10"
       inkscape:connector-curvature="0"
       style="fill:none;stroke:#000000;stroke-width:2" />
    <path
       d="m -1263.22,200.34 -13.7,6.1 -0.97,-9.22 z"
       id="path12"
       inkscape:connector-curvature="0"
       style="stroke:#000000;stroke-width:2" />
    <path
       d="m -1637.94,152.47 303.03,-102.82 12.84,37.88 -303.03,102.82 z"
       id="path14"
       inkscape:connector-curvature="0"
       style="fill-opacity:0;stroke:#000000;stroke-width:0.5;stroke-opacity:0" />
    <use
       xlink:href="#a"
       transform="matrix(0.9469787,-0.32129634,0.32129634,0.9469787,-1617.7424,174.83592)"
       id="use16"
       x="0"
       y="0"
       width="100%"
       height="100%" />
    <use
       xlink:href="#b"
       transform="matrix(0.9469787,-0.32129634,0.32129634,0.9469787,-1528.7371,144.63769)"
       id="use18"
       x="0"
       y="0"
       width="100%"
       height="100%" />
    <use
       xlink:href="#c"
       transform="matrix(0.9469787,-0.32129634,0.32129634,0.9469787,-1448.5378,117.42721)"
       id="use20"
       x="0"
       y="0"
       width="100%"
       height="100%" />
    <use
       xlink:href="#d"
       transform="matrix(0.9469787,-0.32129634,0.32129634,0.9469787,-1415.7491,106.30246)"
       id="use22"
       x="0"
       y="0"
       width="100%"
       height="100%" />
    <path
       d="m -1627.9,194.2 335.7,-41.4 6.88,55.83 -335.7,41.4 z"
       id="path24"
       inkscape:connector-curvature="0"
       style="fill-opacity:0;stroke:#000000;stroke-width:0.5;stroke-opacity:0" />
    <use
       xlink:href="#e"
       transform="matrix(0.99247793,-0.12242372,0.12242372,0.99247793,-1603.6104,227.14039)"
       id="use26"
       x="0"
       y="0"
       width="100%"
       height="100%" />
    <use
       xlink:href="#f"
       transform="matrix(0.99247793,-0.12242372,0.12242372,0.99247793,-1560.8141,221.8614)"
       id="use28"
       x="0"
       y="0"
       width="100%"
       height="100%" />
    <use
       xlink:href="#g"
       transform="matrix(0.99247793,-0.12242372,0.12242372,0.99247793,-1460.3064,209.4636)"
       id="use30"
       x="0"
       y="0"
       width="100%"
       height="100%" />
    <use
       xlink:href="#h"
       transform="matrix(0.99247793,-0.12242372,0.12242372,0.99247793,-1397.8565,201.76031)"
       id="use32"
       x="0"
       y="0"
       width="100%"
       height="100%" />
    <use
       xlink:href="#i"
       transform="matrix(0.99247793,-0.12242372,0.12242372,0.99247793,-1371.3538,198.49116)"
       id="use34"
       x="0"
       y="0"
       width="100%"
       height="100%" />
    <path
       d="m -1640,283 380,0 0,40 -380,0 z"
       id="path36"
       inkscape:connector-curvature="0"
       style="fill-opacity:0;stroke:#000000;stroke-width:0.5;stroke-opacity:0" />
    <g
       id="g38">
      <use
         xlink:href="#j"
         transform="translate(-1472.4175,310.68089)"
         id="use40"
         x="0"
         y="0"
         width="100%"
         height="100%" />
    </g>
    <path
       d="m -1280,80 20,120"
       id="path42"
       inkscape:connector-curvature="0"
       style="fill:none" />
    <path
       d="m -1280,80 0.5,3 m 0.67,4 1,6 m 0.66,4 1,6 m 0.67,4 1,6 m 0.67,4 1,6 m 0.66,4 1,6 m 0.67,4 1,6 m 0.67,4 1,6 m 0.66,4 1,6 m 0.67,4 1,6 m 0.67,4 1,6 m 0.66,4 1,6 m 0.67,4 0.5,3"
       id="path44"
       inkscape:connector-curvature="0"
       style="fill:none;stroke:#000000;stroke-width:2" />
    <path
       d="m -1260,120 77.94,0 0,49.65 -77.94,0 z"
       id="path46"
       inkscape:connector-curvature="0"
       style="fill-opacity:0;stroke:#000000;stroke-width:0.5;stroke-opacity:0" />
    <g
       id="g48">
      <use
         xlink:href="#k"
         transform="translate(-1247.3726,152.17231)"
         id="use50"
         x="0"
         y="0"
         width="100%"
         height="100%" />
    </g>
    <defs
       id="defs52">
      <path
         d="m 892,-988 c 1,-180 -155,-261 -350,-261 -239,0 -359,83 -359,250 0,109 72,186 218,225 134,36 273,57 404,101 148,49 217,165 217,318 C 1022,-137 763,22 534,22 285,22 54,-135 53,-369 l 130,0 c 6,176 157,261 349,261 178,0 360,-88 360,-250 0,-109 -72,-188 -217,-228 C 541,-623 403,-645 271,-689 123,-738 53,-851 53,-998 c 0,-227 241,-381 478,-381 258,0 497,146 491,391 l -130,0"
         id="l"
         inkscape:connector-curvature="0"
         style="fill:#333333" />
      <path
         d="m 881,-477 c 0,-189 -160,-372 -351,-372 -189,0 -348,181 -348,372 0,191 160,369 348,369 188,0 351,-180 351,-369 z m -829,-1 c 0,-256 220,-501 478,-501 257,0 481,246 481,502 C 1011,-221 785,22 530,22 276,22 52,-223 52,-478"
         id="m"
         inkscape:connector-curvature="0"
         style="fill:#333333" />
      <path
         d="m 51,-478 c 0,-256 221,-509 478,-501 201,6 353,126 426,274 l -152,0 c -71,-96 -163,-144 -274,-144 -189,0 -348,180 -348,372 0,191 160,369 348,369 100,0 189,-44 266,-132 l 155,0 C 852,-65 712,22 529,22 275,22 51,-223 51,-478"
         id="n"
         inkscape:connector-curvature="0"
         style="fill:#333333" />
      <path
         d="m 240,-1205 c -40,0 -79,-36 -79,-76 0,-40 39,-76 79,-76 41,0 78,35 78,76 0,41 -37,76 -78,76 z m -193,248 257,0 0,957 -130,0 0,-827 -127,0 0,-130"
         id="o"
         inkscape:connector-curvature="0"
         style="fill:#333333" />
      <path
         d="m 52,-478 c 0,-256 228,-501 485,-501 264,0 489,248 480,516 l -837,0 c 0,180 174,355 357,355 148,0 301,-110 347,-219 l 130,23 C 955,-140 749,17 537,22 280,28 52,-222 52,-478 Z m 815,-115 c -38,-129 -172,-257 -330,-256 -158,0 -295,130 -340,256 l 670,0"
         id="p"
         inkscape:connector-curvature="0"
         style="fill:#333333" />
      <path
         d="M 406,0 C 279,4 176,-105 176,-232 l 0,-595 -150,0 0,-130 c 75,0 120,-17 137,-51 9,-17 13,-69 13,-155 l 130,0 0,206 241,0 0,130 -241,0 0,595 c 0,70 49,105 146,105 18,0 78,-3 95,-3 L 547,0 406,0"
         id="q"
         inkscape:connector-curvature="0"
         style="fill:#333333" />
      <path
         d="m 253,269 c 88,1 142,-24 163,-75 L 519,-65 33,-957 l 148,0 400,735 292,-735 140,0 L 555,194 C 497,336 401,404 253,399 l 0,-130"
         id="r"
         inkscape:connector-curvature="0"
         style="fill:#333333" />
      <path
         d="m 245,-898 -130,0 0,-457 130,0 0,457"
         id="s"
         inkscape:connector-curvature="0"
         style="fill:#333333" />
      <path
         d="M 898,-260 C 898,-89 674,20 489,20 280,20 75,-78 57,-254 l 126,-27 c 2,114 176,171 313,171 113,0 265,-50 265,-150 0,-60 -40,-102 -120,-127 -21,-6 -104,-22 -252,-42 -166,-23 -242,-71 -302,-158 -134,-339 365,-481 654,-327 94,50 148,120 161,213 l -126,27 c -25,-116 -134,-174 -329,-174 -116,0 -251,47 -251,149 0,73 54,127 164,147 83,15 168,18 253,29 83,11 158,46 225,101 40,33 60,87 60,162"
         id="t"
         inkscape:connector-curvature="0"
         style="fill:#333333" />
      <g
         id="a">
        <use
           transform="scale(0.01085069,0.01085069)"
           xlink:href="#l"
           id="use64"
           x="0"
           y="0"
           width="100%"
           height="100%" />
        <use
           transform="matrix(0.01085069,0,0,0.01085069,12.207031,0)"
           xlink:href="#m"
           id="use66"
           x="0"
           y="0"
           width="100%"
           height="100%" />
        <use
           transform="matrix(0.01085069,0,0,0.01085069,24.414062,0)"
           xlink:href="#n"
           id="use68"
           x="0"
           y="0"
           width="100%"
           height="100%" />
        <use
           transform="matrix(0.01085069,0,0,0.01085069,36.176215,0)"
           xlink:href="#o"
           id="use70"
           x="0"
           y="0"
           width="100%"
           height="100%" />
        <use
           transform="matrix(0.01085069,0,0,0.01085069,40.516493,0)"
           xlink:href="#p"
           id="use72"
           x="0"
           y="0"
           width="100%"
           height="100%" />
        <use
           transform="matrix(0.01085069,0,0,0.01085069,52.723524,0)"
           xlink:href="#q"
           id="use74"
           x="0"
           y="0"
           width="100%"
           height="100%" />
        <use
           transform="matrix(0.01085069,0,0,0.01085069,59.364149,0)"
           xlink:href="#r"
           id="use76"
           x="0"
           y="0"
           width="100%"
           height="100%" />
        <use
           transform="matrix(0.01085069,0,0,0.01085069,71.343316,0)"
           xlink:href="#s"
           id="use78"
           x="0"
           y="0"
           width="100%"
           height="100%" />
        <use
           transform="matrix(0.01085069,0,0,0.01085069,75.249566,0)"
           xlink:href="#t"
           id="use80"
           x="0"
           y="0"
           width="100%"
           height="100%" />
      </g>
      <path
         d="m -2,-478 c 0,-256 249,-501 505,-501 147,0 261,65 343,196 l 0,-572 132,0 0,1355 -132,0 0,-174 C 761,-43 645,22 498,22 243,22 -2,-223 -2,-478 Z m 843,0 c 0,-191 -151,-371 -338,-371 -187,0 -375,184 -375,371 0,187 183,370 370,370 188,0 343,-180 343,-370"
         id="u"
         inkscape:connector-curvature="0"
         style="fill:#333333" />
      <path
         d="m 455,-849 c -173,0 -251,180 -251,371 l 0,478 -130,0 0,-957 130,0 0,106 c 60,-85 144,-128 251,-128 146,0 245,69 296,208 37,-139 135,-208 295,-208 233,0 349,167 349,501 l 0,478 -130,0 0,-478 c 0,-247 -73,-371 -219,-371 -169,0 -241,180 -241,371 l 0,478 -130,0 -1,-478 c 0,-247 -73,-371 -219,-371"
         id="v"
         inkscape:connector-curvature="0"
         style="fill:#333333" />
      <path
         d="m 497,-108 c 108,0 303,-51 303,-143 l 0,-220 c -2,23 -338,19 -365,38 -104,20 -200,82 -200,182 0,95 87,143 262,143 z m 28,-871 c 161,0 405,100 405,248 l 0,579 c 0,27 16,41 48,44 -1,21 -3,64 -5,129 C 901,17 851,-12 822,-66 740,-7 634,22 504,22 233,22 97,-70 97,-253 c 0,-145 124,-253 248,-288 70,-20 368,-9 427,-58 17,-9 27,-25 29,-46 -1,7 -1,-13 -1,-60 0,-84 -168,-147 -260,-147 -166,0 -269,58 -309,174 l -126,-27 c 31,-178 203,-274 420,-274"
         id="w"
         inkscape:connector-curvature="0"
         style="fill:#333333" />
      <path
         d="m 545,-849 c -196,0 -341,171 -341,371 l 0,478 -130,0 0,-957 130,0 0,174 c 77,-131 190,-196 341,-196 285,0 449,200 449,493 l 0,486 -132,0 0,-478 c 2,-219 -106,-371 -317,-371"
         id="x"
         inkscape:connector-curvature="0"
         style="fill:#333333" />
      <g
         id="b">
        <use
           transform="scale(0.01085069,0.01085069)"
           xlink:href="#u"
           id="use87"
           x="0"
           y="0"
           width="100%"
           height="100%" />
        <use
           transform="matrix(0.01085069,0,0,0.01085069,12.076823,0)"
           xlink:href="#p"
           id="use89"
           x="0"
           y="0"
           width="100%"
           height="100%" />
        <use
           transform="matrix(0.01085069,0,0,0.01085069,24.283854,0)"
           xlink:href="#v"
           id="use91"
           x="0"
           y="0"
           width="100%"
           height="100%" />
        <use
           transform="matrix(0.01085069,0,0,0.01085069,41.069878,0)"
           xlink:href="#w"
           id="use93"
           x="0"
           y="0"
           width="100%"
           height="100%" />
        <use
           transform="matrix(0.01085069,0,0,0.01085069,52.636719,0)"
           xlink:href="#x"
           id="use95"
           x="0"
           y="0"
           width="100%"
           height="100%" />
        <use
           transform="matrix(0.01085069,0,0,0.01085069,64.756944,0)"
           xlink:href="#u"
           id="use97"
           x="0"
           y="0"
           width="100%"
           height="100%" />
      </g>
      <path
         d="m 431,-1222 c -103,-2 -191,65 -188,167 l 0,98 188,0 0,130 -188,0 0,827 -132,0 0,-827 -78,0 0,-130 78,0 c -7,-146 8,-241 94,-317 61,-53 135,-81 226,-81 l 0,133"
         id="y"
         inkscape:connector-curvature="0"
         style="fill:#333333" />
      <path
         d="m 550,-827 c -191,0 -346,159 -346,349 l 0,478 -132,0 0,-957 132,0 0,174 c 85,-116 198,-174 339,-174 l 204,0 0,174 c -69,-29 -134,-44 -197,-44"
         id="z"
         inkscape:connector-curvature="0"
         style="fill:#333333" />
      <g
         id="c">
        <use
           transform="scale(0.01085069,0.01085069)"
           xlink:href="#y"
           id="use102"
           x="0"
           y="0"
           width="100%"
           height="100%" />
        <use
           transform="matrix(0.01085069,0,0,0.01085069,5.2625868,0)"
           xlink:href="#m"
           id="use104"
           x="0"
           y="0"
           width="100%"
           height="100%" />
        <use
           transform="matrix(0.01085069,0,0,0.01085069,17.469618,0)"
           xlink:href="#z"
           id="use106"
           x="0"
           y="0"
           width="100%"
           height="100%" />
      </g>
      <path
         d="m 395,0 -335,-957 137,0 259,739 167,-476 -93,-263 137,0 262,744 258,-744 138,0 L 991,0 866,0 692,-498 516,0 395,0"
         id="A"
         inkscape:connector-curvature="0"
         style="fill:#333333" />
      <g
         id="d">
        <use
           transform="scale(0.01085069,0.01085069)"
           xlink:href="#t"
           id="use110"
           x="0"
           y="0"
           width="100%"
           height="100%" />
        <use
           transform="matrix(0.01085069,0,0,0.01085069,10.883247,0)"
           xlink:href="#m"
           id="use112"
           x="0"
           y="0"
           width="100%"
           height="100%" />
        <use
           transform="matrix(0.01085069,0,0,0.01085069,23.090278,0)"
           xlink:href="#y"
           id="use114"
           x="0"
           y="0"
           width="100%"
           height="100%" />
        <use
           transform="matrix(0.01085069,0,0,0.01085069,28.352865,0)"
           xlink:href="#q"
           id="use116"
           x="0"
           y="0"
           width="100%"
           height="100%" />
        <use
           transform="matrix(0.01085069,0,0,0.01085069,34.99349,0)"
           xlink:href="#A"
           id="use118"
           x="0"
           y="0"
           width="100%"
           height="100%" />
        <use
           transform="matrix(0.01085069,0,0,0.01085069,50.607639,0)"
           xlink:href="#w"
           id="use120"
           x="0"
           y="0"
           width="100%"
           height="100%" />
        <use
           transform="matrix(0.01085069,0,0,0.01085069,62.174479,0)"
           xlink:href="#z"
           id="use122"
           x="0"
           y="0"
           width="100%"
           height="100%" />
        <use
           transform="matrix(0.01085069,0,0,0.01085069,70.605469,0)"
           xlink:href="#p"
           id="use124"
           x="0"
           y="0"
           width="100%"
           height="100%" />
      </g>
      <path
         d="m 558,-1225 0,1225 -130,0 0,-1225 -407,0 0,-130 954,0 0,130 -417,0"
         id="B"
         inkscape:connector-curvature="0"
         style="fill:#333333" />
      <path
         d="m 543,-849 c -184,0 -339,185 -339,371 l 0,478 -130,0 0,-1355 130,0 0,572 c 84,-131 197,-196 339,-196 250,0 421,235 421,493 l 0,486 -130,0 0,-478 c 4,-195 -107,-371 -291,-371"
         id="C"
         inkscape:connector-curvature="0"
         style="fill:#333333" />
      <g
         id="e">
        <use
           transform="scale(0.01085069,0.01085069)"
           xlink:href="#B"
           id="use129"
           x="0"
           y="0"
           width="100%"
           height="100%" />
        <use
           transform="matrix(0.01085069,0,0,0.01085069,11.501736,0)"
           xlink:href="#C"
           id="use131"
           x="0"
           y="0"
           width="100%"
           height="100%" />
        <use
           transform="matrix(0.01085069,0,0,0.01085069,23.057726,0)"
           xlink:href="#p"
           id="use133"
           x="0"
           y="0"
           width="100%"
           height="100%" />
      </g>
      <path
         d="m 483,-108 c 191,0 291,-169 291,-370 l 0,-479 130,0 0,957 -130,0 0,-137 C 701,-31 604,22 483,22 219,22 67,-183 67,-456 l 0,-501 130,0 0,501 c -4,182 112,348 286,348"
         id="D"
         inkscape:connector-curvature="0"
         style="fill:#333333" />
      <g
         id="f">
        <use
           transform="scale(0.01085069,0.01085069)"
           xlink:href="#o"
           id="use137"
           x="0"
           y="0"
           width="100%"
           height="100%" />
        <use
           transform="matrix(0.01085069,0,0,0.01085069,4.3402778,0)"
           xlink:href="#x"
           id="use139"
           x="0"
           y="0"
           width="100%"
           height="100%" />
        <use
           transform="matrix(0.01085069,0,0,0.01085069,16.460503,0)"
           xlink:href="#u"
           id="use141"
           x="0"
           y="0"
           width="100%"
           height="100%" />
        <use
           transform="matrix(0.01085069,0,0,0.01085069,28.537326,0)"
           xlink:href="#D"
           id="use143"
           x="0"
           y="0"
           width="100%"
           height="100%" />
        <use
           transform="matrix(0.01085069,0,0,0.01085069,39.822049,0)"
           xlink:href="#t"
           id="use145"
           x="0"
           y="0"
           width="100%"
           height="100%" />
        <use
           transform="matrix(0.01085069,0,0,0.01085069,50.705295,0)"
           xlink:href="#q"
           id="use147"
           x="0"
           y="0"
           width="100%"
           height="100%" />
        <use
           transform="matrix(0.01085069,0,0,0.01085069,57.34592,0)"
           xlink:href="#z"
           id="use149"
           x="0"
           y="0"
           width="100%"
           height="100%" />
        <use
           transform="matrix(0.01085069,0,0,0.01085069,66.644965,0)"
           xlink:href="#r"
           id="use151"
           x="0"
           y="0"
           width="100%"
           height="100%" />
        <use
           transform="matrix(0.01085069,0,0,0.01085069,78.624132,0)"
           xlink:href="#s"
           id="use153"
           x="0"
           y="0"
           width="100%"
           height="100%" />
        <use
           transform="matrix(0.01085069,0,0,0.01085069,82.530382,0)"
           xlink:href="#t"
           id="use155"
           x="0"
           y="0"
           width="100%"
           height="100%" />
      </g>
      <path
         d="m 922,-478 c 0,-187 -188,-371 -375,-371 -187,0 -338,180 -338,371 0,190 155,370 343,370 187,0 370,-183 370,-370 z m 130,0 C 1052,-223 807,22 552,22 405,22 289,-43 204,-174 l 0,174 -132,0 0,-1355 132,0 0,572 c 82,-131 196,-196 343,-196 256,0 505,245 505,501"
         id="E"
         inkscape:connector-curvature="0"
         style="fill:#333333" />
      <path
         d="m 86,-1355 132,0 0,1355 -132,0 0,-1355"
         id="F"
         inkscape:connector-curvature="0"
         style="fill:#333333" />
      <g
         id="g">
        <use
           transform="scale(0.01085069,0.01085069)"
           xlink:href="#w"
           id="use160"
           x="0"
           y="0"
           width="100%"
           height="100%" />
        <use
           transform="matrix(0.01085069,0,0,0.01085069,11.56684,0)"
           xlink:href="#E"
           id="use162"
           x="0"
           y="0"
           width="100%"
           height="100%" />
        <use
           transform="matrix(0.01085069,0,0,0.01085069,23.914931,0)"
           xlink:href="#o"
           id="use164"
           x="0"
           y="0"
           width="100%"
           height="100%" />
        <use
           transform="matrix(0.01085069,0,0,0.01085069,28.255208,0)"
           xlink:href="#F"
           id="use166"
           x="0"
           y="0"
           width="100%"
           height="100%" />
        <use
           transform="matrix(0.01085069,0,0,0.01085069,32.107205,0)"
           xlink:href="#o"
           id="use168"
           x="0"
           y="0"
           width="100%"
           height="100%" />
        <use
           transform="matrix(0.01085069,0,0,0.01085069,36.447483,0)"
           xlink:href="#q"
           id="use170"
           x="0"
           y="0"
           width="100%"
           height="100%" />
        <use
           transform="matrix(0.01085069,0,0,0.01085069,43.088108,0)"
           xlink:href="#r"
           id="use172"
           x="0"
           y="0"
           width="100%"
           height="100%" />
      </g>
      <g
         id="h">
        <use
           transform="scale(0.01085069,0.01085069)"
           xlink:href="#q"
           id="use175"
           x="0"
           y="0"
           width="100%"
           height="100%" />
        <use
           transform="matrix(0.01085069,0,0,0.01085069,6.640625,0)"
           xlink:href="#m"
           id="use177"
           x="0"
           y="0"
           width="100%"
           height="100%" />
      </g>
      <path
         d="m 178,-957 334,813 331,-813 142,0 L 595,0 424,0 33,-957 l 145,0"
         id="G"
         inkscape:connector-curvature="0"
         style="fill:#333333" />
      <g
         id="i">
        <use
           transform="scale(0.01085069,0.01085069)"
           xlink:href="#u"
           id="use181"
           x="0"
           y="0"
           width="100%"
           height="100%" />
        <use
           transform="matrix(0.01085069,0,0,0.01085069,12.076823,0)"
           xlink:href="#p"
           id="use183"
           x="0"
           y="0"
           width="100%"
           height="100%" />
        <use
           transform="matrix(0.01085069,0,0,0.01085069,24.283854,0)"
           xlink:href="#F"
           id="use185"
           x="0"
           y="0"
           width="100%"
           height="100%" />
        <use
           transform="matrix(0.01085069,0,0,0.01085069,28.135851,0)"
           xlink:href="#o"
           id="use187"
           x="0"
           y="0"
           width="100%"
           height="100%" />
        <use
           transform="matrix(0.01085069,0,0,0.01085069,32.476128,0)"
           xlink:href="#G"
           id="use189"
           x="0"
           y="0"
           width="100%"
           height="100%" />
        <use
           transform="matrix(0.01085069,0,0,0.01085069,43.337674,0)"
           xlink:href="#p"
           id="use191"
           x="0"
           y="0"
           width="100%"
           height="100%" />
        <use
           transform="matrix(0.01085069,0,0,0.01085069,55.544705,0)"
           xlink:href="#z"
           id="use193"
           x="0"
           y="0"
           width="100%"
           height="100%" />
      </g>
      <g
         id="j">
        <use
           transform="scale(0.01085069,0.01085069)"
           xlink:href="#B"
           id="use196"
           x="0"
           y="0"
           width="100%"
           height="100%" />
        <use
           transform="matrix(0.01085069,0,0,0.01085069,11.501736,0)"
           xlink:href="#o"
           id="use198"
           x="0"
           y="0"
           width="100%"
           height="100%" />
        <use
           transform="matrix(0.01085069,0,0,0.01085069,15.842014,0)"
           xlink:href="#v"
           id="use200"
           x="0"
           y="0"
           width="100%"
           height="100%" />
        <use
           transform="matrix(0.01085069,0,0,0.01085069,32.628038,0)"
           xlink:href="#p"
           id="use202"
           x="0"
           y="0"
           width="100%"
           height="100%" />
      </g>
      <path
         d="m 30,-484 c 0,-265 224,-507 485,-507 196,0 345,102 446,305 l -191,0 c -63,-93 -148,-140 -255,-140 -177,0 -319,167 -319,342 0,176 146,340 319,340 93,0 176,-43 249,-128 l 193,0 C 846,-77 699,21 515,21 254,21 30,-224 30,-484"
         id="H"
         inkscape:connector-curvature="0"
         style="fill:#333333" />
      <path
         d="m 535,-805 c -177,0 -317,145 -317,321 l 0,484 -167,0 0,-970 167,0 0,134 c 85,-89 189,-134 310,-134 l 218,0 0,218 c -83,-35 -153,-53 -211,-53"
         id="I"
         inkscape:connector-curvature="0"
         style="fill:#333333" />
      <path
         d="m 233,-1172 c -50,0 -96,-44 -96,-94 0,-49 46,-93 96,-93 50,0 96,43 96,93 0,52 -44,94 -96,94 z m -207,202 289,0 0,970 -165,0 0,-805 -124,0 0,-165"
         id="J"
         inkscape:connector-curvature="0"
         style="fill:#333333" />
      <path
         d="m 68,-580 c -113,-243 147,-407 386,-407 229,0 422,106 446,301 l -161,34 c -17,-73 -62,-125 -139,-149 -121,-38 -274,-36 -352,29 -25,21 -38,44 -38,71 0,66 59,112 178,131 86,13 176,12 261,32 115,27 244,96 244,266 0,81 -40,141 -102,191 C 645,38 359,49 192,-49 101,-102 48,-180 33,-282 l 163,-35 c 5,118 149,172 287,172 93,0 238,-46 238,-127 0,-45 -37,-74 -103,-103 -48,-21 -337,-53 -386,-71 -61,-22 -144,-92 -164,-134"
         id="K"
         inkscape:connector-curvature="0"
         style="fill:#333333" />
      <g
         id="k">
        <use
           transform="scale(0.01085069,0.01085069)"
           xlink:href="#H"
           id="use209"
           x="0"
           y="0"
           width="100%"
           height="100%" />
        <use
           transform="matrix(0.01085069,0,0,0.01085069,11.371528,0)"
           xlink:href="#I"
           id="use211"
           x="0"
           y="0"
           width="100%"
           height="100%" />
        <use
           transform="matrix(0.01085069,0,0,0.01085069,20.996094,0)"
           xlink:href="#J"
           id="use213"
           x="0"
           y="0"
           width="100%"
           height="100%" />
        <use
           transform="matrix(0.01085069,0,0,0.01085069,25.661892,0)"
           xlink:href="#K"
           id="use215"
           x="0"
           y="0"
           width="100%"
           height="100%" />
        <use
           transform="matrix(0.01085069,0,0,0.01085069,36.87066,0)"
           xlink:href="#J"
           id="use217"
           x="0"
           y="0"
           width="100%"
           height="100%" />
        <use
           transform="matrix(0.01085069,0,0,0.01085069,41.536458,0)"
           xlink:href="#K"
           id="use219"
           x="0"
           y="0"
           width="100%"
           height="100%" />
      </g>
    </defs>
  </g>
</svg>
