<?xml version="1.0" encoding="iso-8859-1"?>
<!-- Generator: Adobe Illustrator 19.0.0, SVG Export Plug-In . SVG Version: 6.00 Build 0)  -->
<svg version="1.1" id="Layer_1" xmlns="http://www.w3.org/2000/svg" xmlns:xlink="http://www.w3.org/1999/xlink" x="0px" y="0px"
     viewBox="0 0 511.999 511.999" style="enable-background:new 0 0 511.999 511.999;" xml:space="preserve">
<path style="fill:#F7EDE3;" d="M405.547,412.957H106.453c-48.97,0-88.668-39.698-88.668-88.668v-34.491
    c0-28.42,23.039-51.459,51.459-51.459h373.51c28.42,0,51.459,23.039,51.459,51.459v34.491
    C494.215,373.258,454.517,412.957,405.547,412.957z"/>
<path style="fill:#DBD2CA;" d="M38.495,324.288v-34.491c0-28.42,23.039-51.459,51.459-51.459h-20.71
    c-28.42,0-51.459,23.039-51.459,51.459v34.491c0,48.97,39.698,88.668,88.668,88.668h20.71
    C78.194,412.957,38.495,373.258,38.495,324.288z"/>
<path style="fill:#FCB5A6;" d="M481.359,238.317H30.641C13.788,238.317,0,224.528,0,207.675v-5.071
    c0-55.057,45.047-100.102,100.102-100.102h311.794c55.057,0,100.102,45.047,100.102,100.102v5.071
    C512,224.528,498.211,238.317,481.359,238.317z"/>
<g>
    <path style="fill:#FCCBC2;" d="M90.327,106.323c-8.192,28.047-18.41,73.685-20.77,131.988H53.388c0-0.097,0.01-0.215,0.01-0.312
        c1.843-46.608,8.634-90.953,20.178-131.902c5.497-1.531,11.177-2.587,16.998-3.147C90.726,104.048,90.662,105.191,90.327,106.323z"
        />
    <path style="fill:#FCCBC2;" d="M157.879,104.944c-8.504,42.134-13.754,87.008-15.619,133.368h-16.169
        c0-0.097,0.01-0.215,0.01-0.312c1.865-47.072,7.168-92.656,15.78-135.502h16.104C158.084,103.294,158.051,104.113,157.879,104.944z
        "/>
    <path style="fill:#FCCBC2;" d="M465.823,238.311h-16.169c-1.854-46.08-8.688-89.929-20.286-130.318
        c-0.388-1.347-0.41-2.705-0.119-3.977c5.885,1.034,11.598,2.598,17.096,4.625c11.114,40.303,17.667,83.785,19.466,129.358
        C465.812,238.095,465.823,238.214,465.823,238.311z"/>
    <path style="fill:#FCCBC2;" d="M393.129,238.311h-16.169c-1.854-46.274-7.114-91.146-15.619-133.368
        c-0.172-0.83-0.205-1.649-0.108-2.447h16.104c8.612,42.943,13.916,88.516,15.78,135.502
        C393.119,238.095,393.129,238.214,393.129,238.311z"/>
</g>
<path style="fill:#F78972;" d="M20.71,207.675v-5.071c0-55.057,45.047-100.103,100.102-100.103h-20.71
    C45.047,102.501,0,147.547,0,202.604v5.071c0,16.852,13.788,30.641,30.641,30.641h20.71C34.498,238.316,20.71,224.528,20.71,207.675
    z"/>
<path style="fill:#362928;" d="M342.231,98.626v314.745c0,2.382-1.929,4.311-4.311,4.311H174.08c-2.382,0-4.311-1.93-4.311-4.311
    V98.626c0-2.382,1.93-4.311,4.311-4.311h163.84C340.302,94.315,342.231,96.245,342.231,98.626z"/>
<path style="fill:#2B2121;" d="M189.17,94.315v323.369h-15.09c-2.382,0-4.311-1.93-4.311-4.311V98.626
    c0-2.382,1.93-4.311,4.311-4.311H189.17z"/>
<g>
</g>
<g>
</g>
<g>
</g>
<g>
</g>
<g>
</g>
<g>
</g>
<g>
</g>
<g>
</g>
<g>
</g>
<g>
</g>
<g>
</g>
<g>
</g>
<g>
</g>
<g>
</g>
<g>
</g>
</svg>
