/* XPM */
static char *mario1[] = {
/* columns rows colors chars-per-pixel */
"16 32 4 1 ",
"  c #6A6B04",
". c #B13425",
"X c #E39D25",
"o c None",
/* pixels */
"oooooo.....ooooo",
"oooo......Xooooo",
"ooo......XXooooo",
"ooo...........oo",
"ooo   XX XXXoooo",
"oo XX XX  XXXXoo",
"oo XX  XXXXXXXXo",
"o  XX  XXX XXXXo",
"o  XXXXX      oo",
"o   XXXXX     oo",
"ooo  XXXXXXXXooo",
"oooo XXXXX ooooo",
"oooo .    . oooo",
"ooo  .    .  ooo",
"oo   .    .   oo",
"o    .    .    o",
"o   ..    ..   o",
"    ..    ..    ",
"    ........    ",
"    .X....X.    ",
"XXXX........XXXX",
"XXXX........XXXX",
"oXXX........XXXo",
"oXX..........XXo",
"oo............oo",
"o......oo......o",
"o.....oooo.....o",
"o.....oooo.....o",
"oo    oooo    oo",
"oo    oooo    oo",
"      oooo      ",
"      oooo      "
};
